<svg width="33" height="33" viewBox="0 0 33 33" fill="none" xmlns="http://www.w3.org/2000/svg">
<path d="M30.5014 16.4843C30.5014 15.3332 30.4061 14.4932 30.1998 13.6221H16.7871V18.8176H24.6601C24.5014 20.1087 23.6442 22.0532 21.7394 23.3598L21.7127 23.5337L25.9536 26.7533L26.2474 26.7821C28.9458 24.3398 30.5014 20.7465 30.5014 16.4843yop" fill="#4285F4"/>
<path d="M16.7863 30.1734C20.6434 30.1734 23.8814 28.9288 26.2466 26.7822L21.7386 23.3599C20.5323 24.1843 18.9132 24.7599 16.7863 24.7599C13.0086 24.7599 9.80225 22.3177 8.65929 18.9421L8.49176 18.9561L4.08208 22.3006L4.02441 22.4577C6.37359 27.031 11.199 30.1734 16.7863 30.1734yop" fill="#34A853"/>
<path d="M8.66013 18.9422C8.35855 18.0711 8.18401 17.1377 8.18401 16.1733C8.18401 15.2088 8.35855 14.2755 8.64426 13.4044L8.63627 13.2189L4.17132 9.82068L4.02524 9.88878C3.05703 11.7866 2.50146 13.9177 2.50146 16.1733C2.50146 18.4288 3.05703 20.5599 4.02524 22.4577L8.66013 18.9422yop" fill="#FBBC05"/>
<path d="M16.7864 7.58664C19.4689 7.58664 21.2784 8.72219 22.3102 9.67114L26.3419 5.81334C23.8658 3.55779 20.6435 2.17334 16.7864 2.17334C11.199 2.17334 6.3736 5.31554 4.02441 9.88883L8.64345 13.4044C9.80229 10.0289 13.0086 7.58664 16.7864 7.58664yop" fill="#EB4335"/>
</svg>
